<?xml version="1.0" encoding="UTF-8"?>
<svg xmlns="http://www.w3.org/2000/svg" xmlns:xlink="http://www.w3.org/1999/xlink" width="16px" height="16px" viewBox="0 0 16 16" version="1.1">
<g id="surface1">
<path style=" stroke:none;fill-rule:nonzero;fill:rgb(100%,20.392157%,24.705882%);fill-opacity:1;" d="M 8 0 C 10.210938 0 12.210938 0.894531 13.65625 2.34375 C 15.105469 3.789062 16 5.789062 16 8 C 16 10.210938 15.105469 12.210938 13.65625 13.65625 C 12.210938 15.105469 10.210938 16 8 16 C 5.789062 16 3.789062 15.105469 2.34375 13.65625 C 0.894531 12.210938 0 10.210938 0 8 C 0 5.789062 0.894531 3.789062 2.34375 2.34375 C 3.789062 0.894531 5.789062 0 8 0 Z M 8 0 "/>
<path style=" stroke:none;fill-rule:evenodd;fill:rgb(82.352942%,85.490197%,85.490197%);fill-opacity:1;" d="M 8 0.8125 C 11.96875 0.8125 15.1875 4.03125 15.1875 8 C 15.1875 11.96875 11.96875 15.1875 8 15.1875 C 4.03125 15.1875 0.8125 11.96875 0.8125 8 C 0.8125 4.03125 4.03125 0.8125 8 0.8125 Z M 8 0.8125 "/>
<path style=" stroke:none;fill-rule:evenodd;fill:rgb(91.37255%,94.901961%,94.901961%);fill-opacity:1;" d="M 8 1.382812 C 11.652344 1.382812 14.617188 4.347656 14.617188 8 C 14.617188 11.652344 11.652344 14.617188 8 14.617188 C 4.347656 14.617188 1.382812 11.652344 1.382812 8 C 1.382812 4.347656 4.347656 1.382812 8 1.382812 Z M 8 1.382812 "/>
<path style=" stroke:none;fill-rule:nonzero;fill:rgb(30.19608%,30.19608%,30.19608%);fill-opacity:1;" d="M 8.308594 13.628906 C 8.308594 13.800781 8.167969 13.9375 8 13.9375 C 7.832031 13.9375 7.691406 13.800781 7.691406 13.628906 L 7.691406 13.082031 C 7.691406 12.910156 7.832031 12.773438 8 12.773438 C 8.167969 12.773438 8.308594 12.910156 8.308594 13.082031 Z M 11.082031 12.722656 C 11.164062 12.871094 11.113281 13.058594 10.96875 13.140625 C 10.820312 13.226562 10.632812 13.175781 10.550781 13.027344 L 10.277344 12.550781 C 10.191406 12.40625 10.242188 12.21875 10.386719 12.136719 C 10.535156 12.050781 10.722656 12.101562 10.804688 12.246094 Z M 4.921875 3.277344 C 4.835938 3.128906 4.886719 2.941406 5.03125 2.859375 C 5.179688 2.773438 5.367188 2.824219 5.449219 2.972656 L 5.722656 3.449219 C 5.808594 3.59375 5.757812 3.78125 5.613281 3.863281 C 5.464844 3.949219 5.277344 3.898438 5.195312 3.753906 Z M 13.03125 10.550781 C 13.175781 10.636719 13.226562 10.824219 13.140625 10.96875 C 13.054688 11.113281 12.867188 11.164062 12.722656 11.078125 L 12.246094 10.804688 C 12.101562 10.71875 12.050781 10.53125 12.136719 10.386719 C 12.21875 10.242188 12.40625 10.191406 12.554688 10.277344 Z M 2.96875 5.449219 C 2.824219 5.363281 2.773438 5.175781 2.859375 5.03125 C 2.945312 4.886719 3.132812 4.835938 3.277344 4.917969 L 3.753906 5.195312 C 3.898438 5.28125 3.949219 5.464844 3.863281 5.613281 C 3.78125 5.757812 3.59375 5.808594 3.445312 5.722656 Z M 13.628906 7.695312 C 13.800781 7.695312 13.9375 7.832031 13.9375 8 C 13.9375 8.167969 13.800781 8.304688 13.628906 8.304688 L 13.082031 8.304688 C 12.910156 8.304688 12.773438 8.167969 12.773438 8 C 12.773438 7.832031 12.910156 7.695312 13.082031 7.695312 Z M 2.371094 8.308594 C 2.199219 8.308594 2.0625 8.167969 2.0625 8 C 2.0625 7.832031 2.199219 7.691406 2.371094 7.691406 L 2.917969 7.691406 C 3.089844 7.691406 3.226562 7.832031 3.226562 8 C 3.226562 8.167969 3.089844 8.308594 2.917969 8.308594 Z M 12.722656 4.917969 C 12.871094 4.835938 13.058594 4.886719 13.140625 5.03125 C 13.226562 5.179688 13.175781 5.367188 13.027344 5.449219 L 12.550781 5.722656 C 12.40625 5.808594 12.21875 5.757812 12.136719 5.613281 C 12.050781 5.464844 12.101562 5.277344 12.246094 5.195312 Z M 3.277344 11.078125 C 3.128906 11.164062 2.941406 11.113281 2.859375 10.96875 C 2.773438 10.820312 2.824219 10.632812 2.972656 10.550781 L 3.449219 10.277344 C 3.59375 10.191406 3.78125 10.242188 3.863281 10.386719 C 3.949219 10.535156 3.898438 10.722656 3.753906 10.804688 Z M 10.550781 2.96875 C 10.636719 2.824219 10.824219 2.773438 10.96875 2.859375 C 11.113281 2.945312 11.164062 3.132812 11.078125 3.277344 L 10.804688 3.753906 C 10.71875 3.898438 10.53125 3.949219 10.386719 3.863281 C 10.242188 3.78125 10.191406 3.59375 10.277344 3.445312 Z M 5.449219 13.03125 C 5.363281 13.175781 5.175781 13.226562 5.03125 13.140625 C 4.886719 13.054688 4.835938 12.867188 4.917969 12.722656 L 5.195312 12.246094 C 5.28125 12.101562 5.464844 12.050781 5.613281 12.136719 C 5.757812 12.21875 5.808594 12.40625 5.722656 12.554688 Z M 7.695312 2.371094 C 7.695312 2.199219 7.832031 2.0625 8 2.0625 C 8.167969 2.0625 8.304688 2.199219 8.304688 2.371094 L 8.304688 2.917969 C 8.304688 3.089844 8.167969 3.226562 8 3.226562 C 7.832031 3.226562 7.695312 3.089844 7.695312 2.917969 Z M 7.695312 2.371094 "/>
<path style=" stroke:none;fill-rule:nonzero;fill:rgb(0%,0%,0%);fill-opacity:1;" d="M 7.585938 7.386719 L 7.597656 5.339844 C 7.5 5.382812 7.386719 5.367188 7.304688 5.300781 C 7.1875 5.203125 7.167969 5.027344 7.265625 4.90625 L 7.757812 4.296875 C 7.808594 4.234375 7.886719 4.195312 7.96875 4.191406 L 7.976562 4.191406 C 8.0625 4.191406 8.152344 4.230469 8.207031 4.308594 L 8.671875 4.9375 C 8.746094 5.039062 8.746094 5.179688 8.667969 5.277344 C 8.589844 5.375 8.457031 5.414062 8.34375 5.367188 L 8.332031 7.339844 C 8.460938 7.402344 8.566406 7.503906 8.640625 7.628906 L 10.050781 7.628906 C 10 7.511719 10.035156 7.375 10.136719 7.296875 C 10.238281 7.21875 10.378906 7.21875 10.480469 7.296875 L 11.101562 7.777344 C 11.246094 7.886719 11.246094 8.113281 11.101562 8.222656 L 10.480469 8.703125 C 10.378906 8.78125 10.238281 8.78125 10.136719 8.703125 C 10.035156 8.625 10 8.488281 10.050781 8.371094 L 8.640625 8.371094 C 8.511719 8.59375 8.273438 8.738281 8 8.738281 C 7.589844 8.738281 7.261719 8.410156 7.261719 8 C 7.261719 7.746094 7.390625 7.519531 7.585938 7.386719 Z M 7.585938 7.386719 "/>
<path style=" stroke:none;fill-rule:evenodd;fill:rgb(96.470588%,29.019609%,19.607843%);fill-opacity:1;" d="M 7.90625 7.871094 L 8.128906 8 L 6.304688 11.21875 L 6.082031 11.09375 Z M 7.90625 7.871094 "/>
<path style=" stroke:none;fill-rule:evenodd;fill:rgb(90.196079%,90.196079%,90.196079%);fill-opacity:1;" d="M 8 7.648438 C 8.195312 7.648438 8.351562 7.804688 8.351562 8 C 8.351562 8.195312 8.195312 8.351562 8 8.351562 C 7.804688 8.351562 7.648438 8.195312 7.648438 8 C 7.648438 7.804688 7.804688 7.648438 8 7.648438 Z M 8 7.648438 "/>
</g>
</svg>
